<?xml version="1.0" encoding="UTF-8" standalone="no"?>
<!-- Created with Inkscape (http://www.inkscape.org/) -->
<svg id="svg2" xmlns:rdf="http://www.w3.org/1999/02/22-rdf-syntax-ns#" xmlns="http://www.w3.org/2000/svg" xml:space="preserve" viewBox="0 0 150 150" version="1.1" xmlns:cc="http://creativecommons.org/ns#" xmlns:dc="http://purl.org/dc/elements/1.1/"><metadata id="metadata8"><rdf:RDF><cc:Work rdf:about=""><dc:format>image/svg+xml</dc:format><dc:type rdf:resource="http://purl.org/dc/dcmitype/StillImage"/><dc:title/></cc:Work></rdf:RDF></metadata><defs id="defs6"><clipPath id="clipPath24" clipPathUnits="userSpaceOnUse"><path id="path26" d="m0,120,120,0v-120h-120v120z"/></clipPath></defs><g id="g10" transform="matrix(1.25,0,0,-1.25,0,150.0225)"><g id="g12" transform="translate(34.0872,57.4818)"><path id="path14" fill-rule="nonzero" fill="#373535" d="M0,0,18.2-18.2,57.4,20.9,51,27.3,18.2-5.57,6.32,6.32,0,0z"/></g><g id="g16" fill="#FFF" stroke="#FFF" transform="translate(34.0872,57.4818)"><path id="path18" stroke-linejoin="round" d="M0,0,18.2-18.2,57.4,20.9,51,27.3,18.2-5.57,6.32,6.32,0,0z" stroke="#FFF" stroke-linecap="butt" stroke-miterlimit="10" stroke-dasharray="none" stroke-width="6" fill="#FFF"/></g><g id="g20" stroke="#FFF"><g id="g22" stroke="#FFF" clip-path="url(#clipPath24)"><g id="g28" stroke="#FFF" transform="translate(117.0183,60.0091)"><path id="path30" stroke-linejoin="miter" d="m0,0c0-31.5-25.5-57-57-57s-57,25.5-57,57,25.5,57,57,57,57-25.5,57-57z" stroke="#FFF" stroke-linecap="round" stroke-miterlimit="10" stroke-dasharray="none" stroke-width="6" fill="none"/></g></g></g></g></svg>
